inDegrees=no
num_controls=7
num_derivatives=13
num_iterations=142
num_multipliers=7
num_parameters=0
num_slacks=7
num_states=26
objective=0.444908
objective_accelerations=0.058392
objective_balance=0.003710
objective_effort=0.023585
objective_height=0.353720
objective_ligament=0.005501
solver_duration=2023.814113
status=Solve_Succeeded
success=true
DataType=double
version=3
OpenSimVersion=4.5
endheader
time	/jointset/ground_pelvis/pelvis_tilt/value	/jointset/ground_pelvis/pelvis_tx/value	/jointset/ground_pelvis/pelvis_ty/value	/jointset/hip_l/hip_flexion_l/value	/jointset/hip_l/hip_adduction_l/value	/jointset/hip_l/hip_rotation_l/value	/jointset/back/lumbar_extension/value	/jointset/patellofemoral_l/patellar_flexion_l/value	/jointset/knee_l/knee_flexion_l/value	/jointset/knee_l/knee_adduction_l/value	/jointset/knee_l/knee_rotation_l/value	/jointset/ankle_l/ankle_angle_l/value	/jointset/subtalar_l/subtalar_angle_l/value	/jointset/ground_pelvis/pelvis_tilt/speed	/jointset/ground_pelvis/pelvis_tx/speed	/jointset/ground_pelvis/pelvis_ty/speed	/jointset/hip_l/hip_flexion_l/speed	/jointset/hip_l/hip_adduction_l/speed	/jointset/hip_l/hip_rotation_l/speed	/jointset/back/lumbar_extension/speed	/jointset/patellofemoral_l/patellar_flexion_l/speed	/jointset/knee_l/knee_flexion_l/speed	/jointset/knee_l/knee_adduction_l/speed	/jointset/knee_l/knee_rotation_l/speed	/jointset/ankle_l/ankle_angle_l/speed	/jointset/subtalar_l/subtalar_angle_l/speed	/forceset/tau_hip_flexion_l	/forceset/tau_hip_adduction_l	/forceset/tau_hip_rotation_l	/forceset/tau_knee_flexion_l	/forceset/tau_ankle_angle_l	/forceset/tau_subtalar_angle_l	/forceset/tau_lumbar_extension	lambda_cid13_p0	lambda_cid13_p1	lambda_cid13_p2	lambda_cid13_p3	lambda_cid13_p4	lambda_cid13_p5	lambda_cid14_p0	/jointset/ground_pelvis/pelvis_tilt/accel	/jointset/ground_pelvis/pelvis_tx/accel	/jointset/ground_pelvis/pelvis_ty/accel	/jointset/hip_l/hip_flexion_l/accel	/jointset/hip_l/hip_adduction_l/accel	/jointset/hip_l/hip_rotation_l/accel	/jointset/back/lumbar_extension/accel	/jointset/patellofemoral_l/patellar_flexion_l/accel	/jointset/knee_l/knee_flexion_l/accel	/jointset/knee_l/knee_adduction_l/accel	/jointset/knee_l/knee_rotation_l/accel	/jointset/ankle_l/ankle_angle_l/accel	/jointset/subtalar_l/subtalar_angle_l/accel	gamma_cid13_p0	gamma_cid13_p1	gamma_cid13_p2	gamma_cid13_p3	gamma_cid13_p4	gamma_cid13_p5	gamma_cid14_p0
1.5	-0.380475055758915	-0.02958486174026432	0.7590144121100769	1.12809138625506	-0.4345574367387086	-0.2120929981563542	-0.2263629606922195	0.804129963615022	0.8041299636155945	-0.1308655140911829	-0.1464826470385411	0.1183020461875344	-0.02430308728872799	0.7098189791141457	0.2867709680995029	0.544167390406719	-2.517817066080448	0.2077333095464704	-0.720465398302166	0.3122759133492236	-2.014106637325295	-2.014106637324429	-0.1301479139486705	0.1329595644465258	-0.3714889952065151	0.04982248260184623	-0.1806615540461481	0.02590907937201979	-0.008164167047816733	-0.2008867723140256	0.04563741662011091	0.04615245423016079	0.1724520442164172	-17.47541551741946	-19.92645743916076	6.201679594161449	-8.063356842845931	-519.8043944289734	-62.85874689492479	-25.00276547609193	0.7073396982022678	0.732870287459028	-0.5237450227977255	-1.333218378508089	0.7171101350153338	-0.1790518670191961	1.495209305667619	-1.314578436225511	-1.314578436225537	0.1204132023544356	0.2335669408712788	-0.4924383753236637	0.5218337824962804	4.914215725863458e-07	4.898462694426685e-07	-2.788605866492287e-06	-1.025399802879506e-07	7.016058542331003e-07	-1.25176161591113e-07	4.55769023363565e-07
1.51	-0.3733416111564115	-0.0266807281237198	0.7644288194967219	1.102848286825452	-0.4324457934484055	-0.2193055239969054	-0.2231667394549343	0.7839255930558334	0.7839255930559591	-0.1321639338501227	-0.1451428566836538	0.1145628373899617	-0.02378052078346159	0.7167609961794692	0.2940239891668767	0.538598276830735	-2.530453308613736	0.2145713400106914	-0.721920893949794	0.3269389661561404	-2.026481742031901	-2.026481742031539	-0.1295457616951791	0.1349977216303228	-0.376274790286761	0.05469707422064092	-0.1742804993117715	0.02488315334858635	-0.007852918114308466	-0.1984101561893272	0.04594897703509739	0.04543796183843317	0.1673240427617307	-17.14983118922554	-19.68114146871394	6.171684773950839	-8.058396419116278	-515.7284304444393	-63.12590341844226	-25.91645256734098	0.6713106730736684	0.7167862772981007	-0.5907518687823444	-1.176372220962772	0.6635632883188017	-0.110613867169168	1.447448075442079	-1.156195708629078	-1.156195708704669	0.02882744446077061	0.1884953337076385	-0.459915159282779	0.4711748808041011	4.262405526955852e-07	1.013585742200512e-06	-1.909695853898287e-06	7.458844204431168e-08	6.153068018876851e-07	1.994599562778127e-09	4.159677232751878e-07
1.52	-0.3661420107907793	-0.02370501064431726	0.7697840842788503	1.077489315964466	-0.4302664870962214	-0.2265289678846401	-0.2198247687281322	0.7636060276054297	0.7636060276051015	-0.1334565898450078	-0.1437827737116102	0.1107781176246049	-0.02320902775616063	0.723050131739844	0.3010877406711081	0.5323388695034097	-2.540991352355968	0.221265921922645	-0.7226490077388047	0.3414258112525927	-2.037145615568544	-2.037145615568686	-0.1289951611371164	0.137018087877069	-0.3805911887633158	0.05960778700875716	-0.167899444577394	0.02385722732515182	-0.007541669180823491	-0.1959335400646269	0.04626053745008375	0.04472346944670472	0.1621960413070457	-16.82718383625231	-19.43737137635268	6.144290623266473	-8.081581802669634	-511.7148379514892	-63.43973529311704	-26.82968762657752	0.5767633972125037	0.6950163748305841	-0.6618037730659637	-0.9135786202970188	0.6884204245618463	-0.03357549529575527	1.459967763574723	-0.9723322022328336	-0.9723322022328726	0.1101028632686996	0.2300087534611491	-0.3985590545854502	0.5290580163605919	4.037798452782565e-07	1.287593393452732e-06	-1.525890322759534e-06	1.58583208123508e-07	5.965083570783536e-07	9.344182810460229e-08	4.021588179212515e-07
1.53	-0.3588827413540207	-0.02065981085042716	0.7750733662567193	1.052035470659239	-0.4280210591177329	-0.2337561584409174	-0.216339145767305	0.7431882913673179	0.7431882913672913	-0.1347441434846535	-0.1424025970463754	0.1069523431589199	-0.02258848872513399	0.7286918639945625	0.3078988414616993	0.5254062457302363	-2.549403276526546	0.2277933243718402	-0.7227001362963431	0.3556426318982207	-2.046105970796671	-2.046105970796606	-0.1284992527774122	0.1389958177950439	-0.3845001792715329	0.06449673307031537	-0.1617326852721736	0.02329368790062513	-0.007195433486271366	-0.1928899378093756	0.04565865421841882	0.04364721713311949	0.1571342521967451	-16.81476240590592	-18.97287809782738	6.071091737952469	-7.651278377108969	-507.7520247913778	-63.38087677902762	-27.74248585431128	0.5411181014829751	0.6661775573499473	-0.7255481783226571	-0.7488002577767316	0.6309935512731097	0.02285097420030967	1.394116862853503	-0.8136226663773534	-0.8136226663462588	0.02193231620019988	0.1780595531894672	-0.377504250274076	0.4683155246686569	4.267094698639486e-07	1.296260984355228e-06	-1.668133303166975e-06	1.436234644338228e-07	6.494293077761103e-07	1.469328032461058e-07	4.159668319726585e-07
1.54	-0.3515704066023385	-0.01754809592339586	0.7802900106970808	1.026508745923838	-0.4257111384355169	-0.2409811137807335	-0.2127130390704621	0.7226898044802725	0.7226898044805447	-0.1360262185419351	-0.1410033621935064	0.103089391747886	-0.0219191597087687	0.7336631947245386	0.3143907672993478	0.5178113620018789	-2.555567238390668	0.234164462668025	-0.7222019644465528	0.3695225584557166	-2.053295745355784	-2.053295745355512	-0.1278994446625504	0.1408297254019708	-0.3880265778331197	0.06936578407648258	-0.1555659259669482	0.02273014847610023	-0.006849197791784808	-0.1898463355541183	0.04505677098675472	0.04257096481953739	0.1520724630864487	-16.80457135827341	-18.51262367191088	6.003857651974143	-7.259866003864105	-503.8361304154472	-63.37319652304922	-28.65555341707965	0.4426830922639737	0.6311813842420538	-0.7942557641027774	-0.4639861590057449	0.6571675939597771	0.07628458616999842	1.392588945948306	-0.6182160684298588	-0.6182160684298589	0.130882814300212	0.2012442912515567	-0.3220406652594079	0.5250790052823963	4.314546825970436e-07	1.379507443109396e-06	-1.658796753620635e-06	1.572322060503505e-07	6.739972549229656e-07	2.004700692247898e-07	4.206246589350212e-07
1.55	-0.3442117229449477	-0.01437307324208978	0.7854274985205225	1.000931489876962	-0.4233383674094278	-0.2481988538495362	-0.2089499952935949	0.7021283349499456	0.7021283349499855	-0.1373015989570162	-0.1395868677341535	0.09919320197621642	-0.02120124837403433	0.7379537744101415	0.3205578821749445	0.5095843237373969	-2.559508246604997	0.2403531570828335	-0.7212341279053262	0.3830186211904058	-2.058694550903284	-2.05869455090375	-0.1271828675511175	0.1424620903445048	-0.3911362820135938	0.07420822598555775	-0.1492623000234358	0.02156349858184714	-0.006534262139363987	-0.1873087950849763	0.04489888117203235	0.04156314157746938	0.1469014166361876	-16.66764169078897	-18.10714606684606	5.948630249296759	-6.945987712327669	-500.1665753781146	-63.51982948441491	-29.57018193545715	0.4042880757078294	0.6011394419577188	-0.852077420416873	-0.3027831629179546	0.5941829429637002	0.124197519732603	1.31797857812091	-0.4552536210965379	-0.4552536212073023	0.04132986700445889	0.1428513045081636	-0.2941196551923405	0.462485824500191	4.152482903695387e-07	1.548681727866573e-06	-1.474814223910166e-06	2.03756811171861e-07	6.658976110220446e-07	2.540606702984861e-07	4.147398790339204e-07
1.56	-0.3368137249569009	-0.0111380468314799	0.7904796860487602	0.9753260987458887	-0.4209048169236458	-0.2554034826866	-0.2050540181612024	0.6815219691995076	0.6815219691993057	-0.1385699566594989	-0.1381543258836204	0.09526817829059196	-0.02043518081205318	0.7415260608557193	0.3263915131601061	0.5007513029610779	-2.561194255230187	0.246320354606534	-0.719579718098755	0.3961092295607633	-2.062274989378244	-2.062274989379449	-0.1264949021420992	0.1440392036371923	-0.3937933606241049	0.07899702952583761	-0.1429586740799199	0.02039684868759431	-0.006219326486969507	-0.1847712546158318	0.04474099135731009	0.04055531833540214	0.1417303701859298	-16.53298159619263	-17.70504027085888	5.89824681049045	-6.665692709892757	-496.5427612265949	-63.71416614856243	-30.48173010623341	0.2990244442588719	0.5644846061550043	-0.9154522664701648	-0.01298624117803404	0.612868215738167	0.2135992392388872	1.311498073081989	-0.2545426539220215	-0.2545426539220103	0.1251604738172945	0.1901939612822595	-0.2315155512668022	0.5143513315233386	3.855986257164909e-07	1.713934435485699e-06	-1.247413581115305e-06	2.60060742657108e-07	6.297315583782589e-07	2.960172387370652e-07	4.028456310274582e-07
